<?xml version="1.0" encoding="UTF-8" standalone="no"?><diagram id="SNbYQcsz_Utg5FWgZMJS" name="Page-1"><mxGraphModel arrows="1" connect="1" dx="332" dy="241" fold="1" grid="1" gridSize="10" guides="1" math="0" page="1" pageHeight="1100" pageScale="1" pageWidth="850" shadow="0" tooltips="1"><root><mxCell id="0"/><mxCell id="1" parent="0"/><mxCell id="2" parent="1" style="swimlane;fontStyle=0;align=center;verticalAlign=top;childLayout=stackLayout;horizontal=1;startSize=30;horizontalStack=0;resizeParent=1;resizeParentMax=0;resizeLast=0;collapsible=0;marginBottom=0;html=1;" value="GUI" vertex="1"><mxGeometry as="geometry" height="216" width="225" x="70" y="80"/></mxCell><mxCell id="3" parent="2" style="text;html=1;strokeColor=none;fillColor=none;align=left;verticalAlign=middle;spacingLeft=4;spacingRight=4;overflow=hidden;rotatable=0;points=[[0,0.5],[1,0.5]];portConstraint=eastwest;fontStyle=4;" value="# frame : JFrame" vertex="1"><mxGeometry as="geometry" height="26" width="225" y="26"/></mxCell><mxCell id="4" parent="2" style="text;html=1;strokeColor=none;fillColor=none;align=left;verticalAlign=middle;spacingLeft=4;spacingRight=4;overflow=hidden;rotatable=0;points=[[0,0.5],[1,0.5]];portConstraint=eastwest;" value="- labels : JLabel[]" vertex="1"><mxGeometry as="geometry" height="26" width="225" y="52"/></mxCell><mxCell id="5" parent="2" style="text;html=1;strokeColor=none;fillColor=none;align=left;verticalAlign=middle;spacingLeft=4;spacingRight=4;overflow=hidden;rotatable=0;points=[[0,0.5],[1,0.5]];portConstraint=eastwest;" value="- buttons : JButton[]" vertex="1"><mxGeometry as="geometry" height="26" width="225" y="78"/></mxCell><mxCell id="6" parent="2" style="text;html=1;strokeColor=none;fillColor=none;align=left;verticalAlign=middle;spacingLeft=4;spacingRight=4;overflow=hidden;rotatable=0;points=[[0,0.5],[1,0.5]];portConstraint=eastwest;" value="- panel : JPanel" vertex="1"><mxGeometry as="geometry" height="26" width="225" y="104"/></mxCell><mxCell id="7" parent="2" style="line;strokeWidth=1;fillColor=none;align=left;verticalAlign=middle;spacingTop=-1;spacingLeft=3;spacingRight=3;rotatable=0;labelPosition=right;points=[];portConstraint=eastwest;" vertex="1"><mxGeometry as="geometry" height="8" width="225" y="130"/></mxCell><mxCell id="8" parent="2" style="text;html=1;strokeColor=none;fillColor=none;align=left;verticalAlign=middle;spacingLeft=4;spacingRight=4;overflow=hidden;rotatable=0;points=[[0,0.5],[1,0.5]];portConstraint=eastwest;" value="+ GUI(JPanel, JLabel[], JButton[])" vertex="1"><mxGeometry as="geometry" height="26" width="225" y="138"/></mxCell><mxCell id="9" parent="2" style="text;html=1;strokeColor=none;fillColor=none;align=left;verticalAlign=middle;spacingLeft=4;spacingRight=4;overflow=hidden;rotatable=0;points=[[0,0.5],[1,0.5]];portConstraint=eastwest;" value="+ placeOnPanel(): void" vertex="1"><mxGeometry as="geometry" height="26" width="225" y="164"/></mxCell><mxCell id="10" parent="2" style="text;html=1;strokeColor=none;fillColor=none;align=left;verticalAlign=middle;spacingLeft=4;spacingRight=4;overflow=hidden;rotatable=0;points=[[0,0.5],[1,0.5]];portConstraint=eastwest;" value="+ placeOnScreen(): void" vertex="1"><mxGeometry as="geometry" height="26" width="225" y="190"/></mxCell><mxCell id="11" parent="1" style="swimlane;fontStyle=0;align=center;verticalAlign=top;childLayout=stackLayout;horizontal=1;startSize=30;horizontalStack=0;resizeParent=1;resizeParentMax=0;resizeLast=0;collapsible=0;marginBottom=0;html=1;" value="LoginGUI" vertex="1"><mxGeometry as="geometry" height="60" width="225" x="248" y="80"/></mxCell><mxCell id="12" parent="11" style="line;strokeWidth=1;fillColor=none;align=left;verticalAlign=middle;spacingTop=-1;spacingLeft=3;spacingRight=3;rotatable=0;labelPosition=right;points=[];portConstraint=eastwest;" vertex="1"><mxGeometry as="geometry" height="8" width="225" y="26"/></mxCell><mxCell id="13" parent="11" style="text;html=1;strokeColor=none;fillColor=none;align=left;verticalAlign=middle;spacingLeft=4;spacingRight=4;overflow=hidden;rotatable=0;points=[[0,0.5],[1,0.5]];portConstraint=eastwest;" value="+ LoginGUI(JPanel, JLabel[], JButton[])" vertex="1"><mxGeometry as="geometry" height="26" width="225" y="34"/></mxCell><mxCell id="14" parent="1" style="swimlane;fontStyle=0;align=center;verticalAlign=top;childLayout=stackLayout;horizontal=1;startSize=30;horizontalStack=0;resizeParent=1;resizeParentMax=0;resizeLast=0;collapsible=0;marginBottom=0;html=1;" value="ExitGUI" vertex="1"><mxGeometry as="geometry" height="60" width="225" x="426" y="80"/></mxCell><mxCell id="15" parent="14" style="line;strokeWidth=1;fillColor=none;align=left;verticalAlign=middle;spacingTop=-1;spacingLeft=3;spacingRight=3;rotatable=0;labelPosition=right;points=[];portConstraint=eastwest;" vertex="1"><mxGeometry as="geometry" height="8" width="225" y="26"/></mxCell><mxCell id="16" parent="14" style="text;html=1;strokeColor=none;fillColor=none;align=left;verticalAlign=middle;spacingLeft=4;spacingRight=4;overflow=hidden;rotatable=0;points=[[0,0.5],[1,0.5]];portConstraint=eastwest;" value="+ ExitGUI(JPanel, JLabel[], JButton[])" vertex="1"><mxGeometry as="geometry" height="26" width="225" y="34"/></mxCell><mxCell id="17" parent="1" style="swimlane;fontStyle=0;align=center;verticalAlign=top;childLayout=stackLayout;horizontal=1;startSize=30;horizontalStack=0;resizeParent=1;resizeParentMax=0;resizeLast=0;collapsible=0;marginBottom=0;html=1;" value="DateGUI" vertex="1"><mxGeometry as="geometry" height="60" width="225" x="70" y="376"/></mxCell><mxCell id="18" parent="17" style="line;strokeWidth=1;fillColor=none;align=left;verticalAlign=middle;spacingTop=-1;spacingLeft=3;spacingRight=3;rotatable=0;labelPosition=right;points=[];portConstraint=eastwest;" vertex="1"><mxGeometry as="geometry" height="8" width="225" y="26"/></mxCell><mxCell id="19" parent="17" style="text;html=1;strokeColor=none;fillColor=none;align=left;verticalAlign=middle;spacingLeft=4;spacingRight=4;overflow=hidden;rotatable=0;points=[[0,0.5],[1,0.5]];portConstraint=eastwest;" value="+ DateGUI(JPanel, JLabel[], JButton[])" vertex="1"><mxGeometry as="geometry" height="26" width="225" y="34"/></mxCell><mxCell id="20" parent="1" style="swimlane;fontStyle=0;align=center;verticalAlign=top;childLayout=stackLayout;horizontal=1;startSize=30;horizontalStack=0;resizeParent=1;resizeParentMax=0;resizeLast=0;collapsible=0;marginBottom=0;html=1;" value="User" vertex="1"><mxGeometry as="geometry" height="112" width="225" x="248" y="376"/></mxCell><mxCell id="21" parent="20" style="text;html=1;strokeColor=none;fillColor=none;align=left;verticalAlign=middle;spacingLeft=4;spacingRight=4;overflow=hidden;rotatable=0;points=[[0,0.5],[1,0.5]];portConstraint=eastwest;" value="- name : String" vertex="1"><mxGeometry as="geometry" height="26" width="225" y="26"/></mxCell><mxCell id="22" parent="20" style="line;strokeWidth=1;fillColor=none;align=left;verticalAlign=middle;spacingTop=-1;spacingLeft=3;spacingRight=3;rotatable=0;labelPosition=right;points=[];portConstraint=eastwest;" vertex="1"><mxGeometry as="geometry" height="8" width="225" y="52"/></mxCell><mxCell id="23" parent="20" style="text;html=1;strokeColor=none;fillColor=none;align=left;verticalAlign=middle;spacingLeft=4;spacingRight=4;overflow=hidden;rotatable=0;points=[[0,0.5],[1,0.5]];portConstraint=eastwest;" value="+ User(String)" vertex="1"><mxGeometry as="geometry" height="26" width="225" y="60"/></mxCell><mxCell id="24" parent="20" style="text;html=1;strokeColor=none;fillColor=none;align=left;verticalAlign=middle;spacingLeft=4;spacingRight=4;overflow=hidden;rotatable=0;points=[[0,0.5],[1,0.5]];portConstraint=eastwest;" value="+ getUser(): String" vertex="1"><mxGeometry as="geometry" height="26" width="225" y="86"/></mxCell><mxCell id="25" parent="1" style="swimlane;fontStyle=0;align=center;verticalAlign=top;childLayout=stackLayout;horizontal=1;startSize=30;horizontalStack=0;resizeParent=1;resizeParentMax=0;resizeLast=0;collapsible=0;marginBottom=0;html=1;" value="MainMenuGUI" vertex="1"><mxGeometry as="geometry" height="60" width="225" x="426" y="376"/></mxCell><mxCell id="26" parent="25" style="line;strokeWidth=1;fillColor=none;align=left;verticalAlign=middle;spacingTop=-1;spacingLeft=3;spacingRight=3;rotatable=0;labelPosition=right;points=[];portConstraint=eastwest;" vertex="1"><mxGeometry as="geometry" height="8" width="225" y="26"/></mxCell><mxCell id="27" parent="25" style="text;html=1;strokeColor=none;fillColor=none;align=left;verticalAlign=middle;spacingLeft=4;spacingRight=4;overflow=hidden;rotatable=0;points=[[0,0.5],[1,0.5]];portConstraint=eastwest;" value="+ MainMenuGUI(JPanel, JLabel[], JButton[])" vertex="1"><mxGeometry as="geometry" height="26" width="225" y="34"/></mxCell><mxCell id="28" parent="1" style="swimlane;fontStyle=0;align=center;verticalAlign=top;childLayout=stackLayout;horizontal=1;startSize=30;horizontalStack=0;resizeParent=1;resizeParentMax=0;resizeLast=0;collapsible=0;marginBottom=0;html=1;" value="Admin" vertex="1"><mxGeometry as="geometry" height="60" width="225" x="70" y="672"/></mxCell><mxCell id="29" parent="28" style="line;strokeWidth=1;fillColor=none;align=left;verticalAlign=middle;spacingTop=-1;spacingLeft=3;spacingRight=3;rotatable=0;labelPosition=right;points=[];portConstraint=eastwest;" vertex="1"><mxGeometry as="geometry" height="8" width="225" y="26"/></mxCell><mxCell id="30" parent="28" style="text;html=1;strokeColor=none;fillColor=none;align=left;verticalAlign=middle;spacingLeft=4;spacingRight=4;overflow=hidden;rotatable=0;points=[[0,0.5],[1,0.5]];portConstraint=eastwest;" value="+ Admin(String)" vertex="1"><mxGeometry as="geometry" height="26" width="225" y="34"/></mxCell><mxCell id="31" parent="1" style="swimlane;fontStyle=0;align=center;verticalAlign=top;childLayout=stackLayout;horizontal=1;startSize=30;horizontalStack=0;resizeParent=1;resizeParentMax=0;resizeLast=0;collapsible=0;marginBottom=0;html=1;" value="ColorSettingsGUI" vertex="1"><mxGeometry as="geometry" height="60" width="225" x="248" y="672"/></mxCell><mxCell id="32" parent="31" style="line;strokeWidth=1;fillColor=none;align=left;verticalAlign=middle;spacingTop=-1;spacingLeft=3;spacingRight=3;rotatable=0;labelPosition=right;points=[];portConstraint=eastwest;" vertex="1"><mxGeometry as="geometry" height="8" width="225" y="26"/></mxCell><mxCell id="33" parent="31" style="text;html=1;strokeColor=none;fillColor=none;align=left;verticalAlign=middle;spacingLeft=4;spacingRight=4;overflow=hidden;rotatable=0;points=[[0,0.5],[1,0.5]];portConstraint=eastwest;" value="+ ColorSettingsGUI(JPanel, JLabel[], JButton[])" vertex="1"><mxGeometry as="geometry" height="26" width="225" y="34"/></mxCell><mxCell id="34" parent="1" style="swimlane;fontStyle=0;align=center;verticalAlign=top;childLayout=stackLayout;horizontal=1;startSize=30;horizontalStack=0;resizeParent=1;resizeParentMax=0;resizeLast=0;collapsible=0;marginBottom=0;html=1;" value="UserSettingsGUI" vertex="1"><mxGeometry as="geometry" height="60" width="225" x="426" y="672"/></mxCell><mxCell id="35" parent="34" style="line;strokeWidth=1;fillColor=none;align=left;verticalAlign=middle;spacingTop=-1;spacingLeft=3;spacingRight=3;rotatable=0;labelPosition=right;points=[];portConstraint=eastwest;" vertex="1"><mxGeometry as="geometry" height="8" width="225" y="26"/></mxCell><mxCell id="36" parent="34" style="text;html=1;strokeColor=none;fillColor=none;align=left;verticalAlign=middle;spacingLeft=4;spacingRight=4;overflow=hidden;rotatable=0;points=[[0,0.5],[1,0.5]];portConstraint=eastwest;" value="+ UserSettingsGUI(JPanel, JLabel[], JButton[])" vertex="1"><mxGeometry as="geometry" height="26" width="225" y="34"/></mxCell><mxCell id="37" parent="1" style="swimlane;fontStyle=0;align=center;verticalAlign=top;childLayout=stackLayout;horizontal=1;startSize=30;horizontalStack=0;resizeParent=1;resizeParentMax=0;resizeLast=0;collapsible=0;marginBottom=0;html=1;" value="WeatherDisplayGUI" vertex="1"><mxGeometry as="geometry" height="60" width="225" x="70" y="968"/></mxCell><mxCell id="38" parent="37" style="line;strokeWidth=1;fillColor=none;align=left;verticalAlign=middle;spacingTop=-1;spacingLeft=3;spacingRight=3;rotatable=0;labelPosition=right;points=[];portConstraint=eastwest;" vertex="1"><mxGeometry as="geometry" height="8" width="225" y="26"/></mxCell><mxCell id="39" parent="37" style="text;html=1;strokeColor=none;fillColor=none;align=left;verticalAlign=middle;spacingLeft=4;spacingRight=4;overflow=hidden;rotatable=0;points=[[0,0.5],[1,0.5]];portConstraint=eastwest;" value="+ WeatherDisplayGUI(JPanel, JLabel[], JButton[])" vertex="1"><mxGeometry as="geometry" height="26" width="225" y="34"/></mxCell><mxCell edge="1" id="40" parent="1" source="11" style="endArrow=block;endSize=16;endFill=0;html=1" target="2" value="Extends"><mxGeometry as="geometry" relative="1" width="160"/></mxCell><mxCell edge="1" id="41" parent="1" source="14" style="endArrow=block;endSize=16;endFill=0;html=1" target="2" value="Extends"><mxGeometry as="geometry" relative="1" width="160"/></mxCell><mxCell edge="1" id="42" parent="1" source="17" style="endArrow=block;endSize=16;endFill=0;html=1" target="2" value="Extends"><mxGeometry as="geometry" relative="1" width="160"/></mxCell><mxCell edge="1" id="43" parent="1" source="25" style="endArrow=block;endSize=16;endFill=0;html=1" target="2" value="Extends"><mxGeometry as="geometry" relative="1" width="160"/></mxCell><mxCell edge="1" id="44" parent="1" source="28" style="endArrow=block;endSize=16;endFill=0;html=1" target="20" value="Extends"><mxGeometry as="geometry" relative="1" width="160"/></mxCell><mxCell edge="1" id="45" parent="1" source="31" style="endArrow=block;endSize=16;endFill=0;html=1" target="2" value="Extends"><mxGeometry as="geometry" relative="1" width="160"/></mxCell><mxCell edge="1" id="46" parent="1" source="34" style="endArrow=block;endSize=16;endFill=0;html=1" target="2" value="Extends"><mxGeometry as="geometry" relative="1" width="160"/></mxCell><mxCell edge="1" id="47" parent="1" source="37" style="endArrow=block;endSize=16;endFill=0;html=1" target="2" value="Extends"><mxGeometry as="geometry" relative="1" width="160"/></mxCell></root></mxGraphModel></diagram>